<svg width="232" height="106" viewBox="0 0 232 106" fill="none" xmlns="http://www.w3.org/2000/svg">
<path d="M72.7653 93L72.9541 92.537L72.7653 93ZM231.609 99.294C231.77 99.0703 231.72 98.7573 231.497 98.595L227.854 95.9493C227.63 95.7869 227.318 95.8367 227.156 96.0603C226.994 96.284 227.045 96.597 227.268 96.7593L230.506 99.1111L228.165 102.351C228.003 102.575 228.053 102.888 228.277 103.05C228.5 103.213 228.813 103.163 228.974 102.939L231.609 99.294ZM1.01953 1C0.534259 1.11791 0.534363 1.11833 0.534531 1.11902C0.534673 1.1196 0.534907 1.12056 0.535192 1.12172C0.535763 1.12405 0.536593 1.12743 0.537685 1.13186C0.539869 1.14072 0.543098 1.15376 0.547382 1.17094C0.55595 1.20531 0.568739 1.2562 0.585828 1.32318C0.620007 1.45715 0.671388 1.65547 0.740611 1.9146C0.879057 2.43284 1.08888 3.19432 1.3752 4.17057C1.94783 6.12302 2.82652 8.93485 4.05226 12.3783C6.50347 19.2644 10.344 28.6807 15.9027 38.8031C27.0147 59.0385 45.0233 82.1513 72.5766 93.463L72.9541 92.537C45.7016 81.3487 27.8373 58.4615 16.7778 38.3219C11.2507 28.2568 7.43095 18.8918 4.99323 12.0436C3.77451 8.61984 2.90159 5.8262 2.33373 3.88997C2.0498 2.92189 1.84216 2.16823 1.7057 1.65742C1.63747 1.40202 1.58704 1.20734 1.55377 1.07693C1.53713 1.01173 1.52479 0.962594 1.51665 0.929973C1.51259 0.913662 1.50957 0.90148 1.5076 0.893482C1.50661 0.889483 1.50589 0.886529 1.50542 0.884629C1.50519 0.883679 1.50504 0.883045 1.50492 0.882569C1.50483 0.8822 1.5048 0.882094 1.01953 1ZM72.5766 93.463C100.088 104.758 139.794 106.25 172.558 104.938C188.952 104.281 203.631 102.92 214.212 101.724C219.502 101.126 223.769 100.569 226.713 100.161C228.185 99.9569 229.327 99.7904 230.101 99.6748C230.488 99.617 230.783 99.5719 230.982 99.5413C231.081 99.5259 231.156 99.5142 231.207 99.5063C231.232 99.5024 231.251 99.4994 231.264 99.4973C231.27 99.4963 231.275 99.4956 231.278 99.4951C231.28 99.4948 231.281 99.4946 231.282 99.4945C231.283 99.4943 231.283 99.4943 231.204 99C231.125 98.5057 231.124 98.5058 231.124 98.5059C231.123 98.506 231.122 98.5062 231.12 98.5065C231.117 98.5069 231.113 98.5077 231.106 98.5087C231.094 98.5106 231.075 98.5135 231.051 98.5174C231.001 98.5252 230.927 98.5368 230.828 98.552C230.631 98.5824 230.338 98.6273 229.952 98.6848C229.182 98.7999 228.043 98.9659 226.575 99.1693C223.638 99.576 219.38 100.132 214.098 100.729C203.535 101.924 188.881 103.282 172.516 103.937C139.762 105.25 100.249 103.742 72.9541 92.537L72.5766 93.463Z" fill="#A8AEED"/>
</svg>
