<svg width="162" height="167" viewBox="0 0 162 167" fill="none" xmlns="http://www.w3.org/2000/svg">
<g opacity="0.2">
<path d="M80.7994 0.889648H82.1918L86.2596 1.02759C87.1605 1.02759 88.1433 1.02759 89.2627 1.02759L92.839 1.55178L97.016 2.15874L101.685 3.34507C105.341 4.29113 108.927 5.49889 112.414 6.95922L118.283 9.71812C120.304 10.7113 122.242 12.0632 124.317 13.2771C134.631 19.8818 143.31 28.7864 149.69 39.3077C156.069 49.8291 159.978 61.6874 161.118 73.9729C161.433 77.6423 161.515 81.3284 161.364 85.0085C161.364 86.8845 161.364 88.7882 161.036 90.5263C160.708 92.2644 160.463 94.306 160.19 96.2372C158.81 104.077 156.279 111.665 152.682 118.75C144.984 134.129 132.613 146.612 117.382 154.367C115.389 155.305 113.451 156.381 111.376 157.126L105.097 159.471C102.94 160.078 100.756 160.602 98.5995 161.182C96.3934 161.702 94.1604 162.098 91.9108 162.368C90.7915 162.534 89.6722 162.782 88.5256 162.837L85.113 163.003C82.8248 163.191 80.5283 163.255 78.2333 163.196C73.5893 163.056 68.9665 162.502 64.4191 161.54C56.6095 159.918 49.0829 157.128 42.0871 153.264H42.7424L15.8513 166.203L14.6227 166.782L14.8684 165.43C16.7977 155.149 18.6723 145.152 20.4924 135.441L20.6562 136.02C12.2832 126.627 6.1956 115.389 2.87791 103.199C-0.439785 91.0096 -0.895964 78.2057 1.5457 65.8065C3.56228 55.3154 7.64746 45.3417 13.558 36.4794C18.6092 28.8919 24.8845 22.2146 32.1224 16.7257C35.2254 14.357 38.4814 12.2002 41.8688 10.2699C43.4795 9.38705 45.1175 8.69733 46.6736 7.92484C48.1431 7.13073 49.6777 6.46613 51.2602 5.93843C54.0225 4.81781 56.8597 3.89588 59.7507 3.17953C62.1769 2.62007 64.6407 2.24199 67.1219 2.04838C69.3332 1.7449 71.2989 1.38625 72.9915 1.22071L77.2777 1.05518H80.0078H80.8814C80.5909 1.08395 80.2983 1.08395 80.0078 1.05518L77.2777 1.2483L72.9915 1.52419C71.2989 1.71732 69.3605 2.10356 67.1764 2.43463C64.7395 2.82017 62.3315 3.37324 59.9691 4.08997C57.1096 4.82289 54.3007 5.7445 51.5605 6.84887C50.0126 7.40904 48.5072 8.08214 47.0559 8.86286C45.527 9.63536 43.889 10.3527 42.3056 11.2631C38.9611 13.1922 35.7504 15.3492 32.6957 17.7189C25.5837 23.1917 19.4208 29.8205 14.4589 37.3347C8.6906 46.1194 4.70936 55.9761 2.74693 66.3307C0.398725 78.5206 0.882818 91.095 4.16112 103.064C7.43943 115.032 13.4224 126.069 21.639 135.303L21.8574 135.551V135.883C20.0373 145.557 18.2173 155.553 16.3973 165.872L15.4144 165.127L42.3056 152.16L42.6332 151.995L42.9335 152.188C49.7806 155.959 57.1395 158.692 64.774 160.299C69.2684 161.243 73.8359 161.787 78.4243 161.927C80.6903 161.927 82.9562 161.927 85.1949 161.761L88.5529 161.568C89.6722 161.568 90.7643 161.264 91.8836 161.126C94.0856 160.852 96.2724 160.466 98.4357 159.968C100.592 159.388 102.722 158.864 104.851 158.257L111.021 155.995C113.042 155.195 114.953 154.119 116.918 153.236C124.472 149.3 131.386 144.22 137.421 138.172C143.128 132.288 147.931 125.574 151.672 118.253C155.22 111.308 157.731 103.87 159.125 96.182C159.398 94.2784 159.698 92.4299 159.971 90.6642C160.244 88.8985 160.19 86.9121 160.326 85.1464C160.487 81.5129 160.414 77.8727 160.108 74.2488C158.988 62.1349 155.163 50.4358 148.921 40.0322C142.679 29.6287 134.182 20.792 124.071 14.1875C121.996 12.9736 120.085 11.6218 118.092 10.6286L112.332 7.86966C108.872 6.41472 105.325 5.18 101.712 4.17273L97.0707 2.95882L92.7845 2.04838L89.2081 1.46901C88.1161 1.46901 87.1333 1.33106 86.2323 1.2483L82.1918 0.972412C81.7266 0.968818 81.2619 0.941196 80.7994 0.889648Z" fill="#A8AEED"/>
<path d="M101.848 102.418C102.249 101.815 102.726 101.268 103.268 100.79L107.363 96.6243C110.857 93.1481 115.717 88.3476 121.013 83.1609V83.8782C115.553 78.7466 110.666 74.0841 107.145 70.6631L103.022 66.6075C102.487 66.1341 102.01 65.5968 101.603 65.0073C102.212 65.374 102.772 65.8192 103.268 66.3316L107.8 70.0561C111.431 73.3392 116.372 77.919 121.832 83.0505L122.214 83.4092L121.832 83.7402C116.372 88.9546 111.485 93.6447 107.882 96.983L103.568 100.928C103.048 101.484 102.471 101.983 101.848 102.418Z" fill="#343C82"/>
<path d="M101.821 103.134C101.731 103.127 101.643 103.102 101.563 103.059C101.483 103.016 101.413 102.957 101.357 102.886C100.838 102.334 101.166 101.976 102.777 100.32L106.872 96.1543C110.312 92.7057 114.925 88.2087 119.894 83.4082C114.953 78.7733 110.394 74.4142 106.926 71.0484L102.804 66.9652C101.166 65.3099 100.838 64.9788 101.357 64.4271C101.876 63.8753 102.258 64.2063 104.087 65.6961L108.401 69.531C112.168 72.952 117.164 77.5594 122.46 82.553L122.843 82.884C122.911 82.9476 122.965 83.0243 123.002 83.1097C123.04 83.195 123.06 83.2872 123.061 83.3806C123.06 83.5777 122.981 83.7662 122.843 83.9048L122.488 84.2635C117.164 89.3674 112.223 94.0851 108.401 97.6441L104.087 101.562C102.749 102.665 102.34 103.134 101.821 103.134Z" fill="#343C82"/>
<path d="M59.778 64.897C59.3571 65.484 58.8818 66.029 58.3584 66.5247L54.2633 70.663C50.7688 74.1668 45.9093 78.9397 40.613 84.1264H40.4764V83.409C45.9365 88.5406 50.8234 93.2031 54.3452 96.5965L58.4403 100.68C58.9783 101.159 59.4634 101.695 59.8872 102.28C59.2814 101.895 58.7144 101.452 58.1945 100.956C57.0206 99.9071 55.4645 98.6381 53.881 97.0931C50.2501 93.81 45.2814 89.2303 39.8212 84.1264L39.4663 83.7677L39.8212 83.409H39.9577C45.4178 78.1948 50.3047 73.5047 53.9084 70.1388L58.1945 66.2212C58.6682 65.7176 59.1998 65.2731 59.778 64.897Z" fill="#343C82"/>
<path d="M59.8055 103.135C59.396 103.135 58.8772 102.666 57.6487 101.617L53.1987 97.7549C49.3766 94.3062 44.4079 89.6713 39.1388 84.7604L38.7839 84.4017C38.7134 84.3404 38.6572 84.2641 38.6195 84.1782C38.5817 84.0923 38.5633 83.9991 38.5656 83.9051C38.5616 83.8135 38.5766 83.722 38.6095 83.6365C38.6424 83.551 38.6924 83.4734 38.7566 83.4085L39.1388 83.0498C44.599 77.8631 49.4858 73.1453 53.226 69.6691L57.5395 65.7238C59.2594 64.1788 59.6416 63.8754 60.2695 64.4271C60.8974 64.9789 60.4334 65.31 58.8499 66.9929L54.7548 71.1589C51.2876 74.6076 46.7011 79.1046 41.7324 83.8775C46.6738 88.5125 51.233 92.8716 54.7002 96.2375L58.8226 100.321C60.4333 101.976 60.7882 102.335 60.2695 102.886C60.2133 102.958 60.143 103.017 60.0632 103.06C59.9833 103.102 59.8956 103.128 59.8055 103.135Z" fill="#343C82"/>
<path d="M70.5615 111.246C70.3158 111.246 74.7386 98.6104 80.4444 83.2157C86.1502 67.8211 90.9552 55.4336 91.2009 55.6267C91.4466 55.8199 87.0238 68.2625 81.318 83.5744C75.6121 98.8863 70.8072 111.329 70.5615 111.246Z" fill="#343C82"/>
<path d="M70.6711 111.99C70.5631 112.014 70.4514 112.014 70.3435 111.99C69.5518 111.714 69.2514 111.577 79.7895 83.1046C90.0272 55.5156 90.7098 55.1294 90.9009 55.019C91.067 54.95 91.2534 54.95 91.4196 55.019C92.2113 55.3225 92.5116 55.4329 81.9736 83.9323C79.2435 91.3814 76.5134 98.3614 74.5478 103.603C71.6812 110.832 71.2171 111.99 70.6711 111.99Z" fill="#343C82"/>
</g>
</svg>
