<svg width="246" height="101" viewBox="0 0 246 101" fill="none" xmlns="http://www.w3.org/2000/svg">
<g opacity="0.2">
<path d="M227.782 44.4391C227.782 44.6561 197.449 44.8188 160.035 44.8188C122.621 44.8188 92.2605 44.6561 92.2605 44.4391C92.2605 44.2221 122.594 44.0322 160.035 44.0322C197.475 44.0322 227.782 44.2221 227.782 44.4391Z" fill="#343C82"/>
<path d="M227.782 56.5814C227.782 56.7983 197.449 56.9609 160.035 56.9609C122.621 56.9609 92.2605 56.7983 92.2605 56.5814C92.2605 56.3645 122.594 56.1748 160.035 56.1748C197.475 56.1748 227.782 56.3374 227.782 56.5814Z" fill="#343C82"/>
<path d="M240.334 100.353C240.334 100.028 241.326 99.7837 242.506 99.7837C243.687 99.7837 244.706 100.028 244.706 100.353C244.706 100.679 243.713 100.923 242.506 100.923C241.3 100.923 240.334 100.652 240.334 100.353Z" fill="#343C82"/>
<path d="M231.644 100.353C231.644 100.028 232.61 99.7837 233.817 99.7837C235.024 99.7837 235.989 100.028 235.989 100.353C235.989 100.679 235.024 100.923 233.817 100.923C232.61 100.923 231.644 100.652 231.644 100.353Z" fill="#343C82"/>
<path d="M222.928 100.353C222.928 100.028 223.92 99.7837 225.1 99.7837C226.28 99.7837 227.273 100.028 227.273 100.353C227.273 100.679 226.307 100.923 225.1 100.923C223.893 100.923 222.928 100.652 222.928 100.353Z" fill="#343C82"/>
<path d="M214.238 100.353C214.238 100.028 215.204 99.7837 216.41 99.7837C217.617 99.7837 218.583 100.028 218.583 100.353C218.583 100.679 217.617 100.923 216.41 100.923C215.204 100.923 214.238 100.652 214.238 100.353Z" fill="#343C82"/>
<path d="M205.522 100.353C205.522 100.028 206.487 99.7837 207.694 99.7837C208.901 99.7837 209.866 100.028 209.866 100.353C209.866 100.679 208.901 100.923 207.694 100.923C206.487 100.923 205.522 100.652 205.522 100.353Z" fill="#343C82"/>
<path d="M196.832 100.353C196.832 100.028 197.797 99.7837 199.004 99.7837C200.211 99.7837 201.176 100.028 201.176 100.353C201.176 100.679 200.211 100.923 199.004 100.923C197.797 100.923 196.832 100.652 196.832 100.353Z" fill="#343C82"/>
<path d="M188.115 100.353C188.115 100.028 189.081 99.7837 190.288 99.7837C191.495 99.7837 192.46 100.028 192.46 100.353C192.46 100.679 191.495 100.923 190.288 100.923C189.081 100.923 188.115 100.652 188.115 100.353Z" fill="#343C82"/>
<path d="M179.426 100.353C179.426 100.028 180.391 99.7837 181.598 99.7837C182.805 99.7837 183.771 100.028 183.771 100.353C183.771 100.679 182.805 100.923 181.598 100.923C180.391 100.923 179.426 100.652 179.426 100.353Z" fill="#343C82"/>
<path d="M170.709 100.353C170.709 100.028 171.675 99.7837 172.881 99.7837C174.088 99.7837 175.054 100.028 175.054 100.353C175.054 100.679 174.088 100.923 172.881 100.923C171.675 100.923 170.709 100.652 170.709 100.353Z" fill="#343C82"/>
<path d="M162.02 100.353C162.02 100.028 162.985 99.7837 164.192 99.7837C165.399 99.7837 166.364 100.028 166.364 100.353C166.364 100.679 165.372 100.923 164.192 100.923C163.012 100.923 162.02 100.652 162.02 100.353Z" fill="#343C82"/>
<path d="M153.303 100.353C153.303 100.028 154.268 99.7837 155.475 99.7837C156.682 99.7837 157.648 100.028 157.648 100.353C157.648 100.679 156.682 100.923 155.475 100.923C154.268 100.923 153.303 100.652 153.303 100.353Z" fill="#343C82"/>
<path d="M144.586 100.353C144.586 100.028 145.579 99.7837 146.786 99.7837C147.992 99.7837 148.958 100.028 148.958 100.353C148.958 100.679 147.966 100.923 146.786 100.923C145.606 100.923 144.586 100.652 144.586 100.353Z" fill="#343C82"/>
<path d="M136.004 100.353C136.004 100.028 136.969 99.7837 138.176 99.7837C139.383 99.7837 140.349 100.028 140.349 100.353C140.349 100.679 139.383 100.923 138.176 100.923C136.969 100.923 136.004 100.652 136.004 100.353Z" fill="#343C82"/>
<path d="M127.18 100.353C127.18 100.028 128.173 99.7837 129.379 99.7837C130.586 99.7837 131.552 100.028 131.552 100.353C131.552 100.679 130.56 100.923 129.379 100.923C128.199 100.923 127.18 100.652 127.18 100.353Z" fill="#343C82"/>
<path d="M118.49 100.353C118.49 100.028 119.456 99.7837 120.663 99.7837C121.87 99.7837 122.835 100.028 122.835 100.353C122.835 100.679 121.87 100.923 120.663 100.923C119.456 100.923 118.49 100.652 118.49 100.353Z" fill="#343C82"/>
<path d="M109.774 100.353C109.774 100.028 110.766 99.7837 111.973 99.7837C113.18 99.7837 114.146 100.028 114.146 100.353C114.146 100.679 113.153 100.923 111.973 100.923C110.793 100.923 109.774 100.652 109.774 100.353Z" fill="#343C82"/>
<path d="M101.138 100.353C101.138 100.028 102.103 99.7837 103.31 99.7837C104.517 99.7837 105.483 100.028 105.483 100.353C105.483 100.679 104.517 100.923 103.31 100.923C102.103 100.923 101.138 100.652 101.138 100.353Z" fill="#343C82"/>
<path d="M92.3677 100.353C92.3677 100.028 93.36 99.7837 94.5401 99.7837C95.7201 99.7837 96.7392 100.028 96.7392 100.353C96.7392 100.679 95.7469 100.923 94.5401 100.923C93.3332 100.923 92.3677 100.652 92.3677 100.353Z" fill="#343C82"/>
<path d="M83.6782 100.353C83.6782 100.028 84.6437 99.7837 85.8506 99.7837C87.0575 99.7837 88.0229 100.028 88.0229 100.353C88.0229 100.679 87.0575 100.923 85.8506 100.923C84.6437 100.923 83.6782 100.652 83.6782 100.353Z" fill="#343C82"/>
<path d="M74.9617 100.353C74.9617 100.028 75.954 99.7837 77.1341 99.7837C78.3142 99.7837 79.3334 100.028 79.3334 100.353C79.3334 100.679 78.341 100.923 77.1341 100.923C75.9272 100.923 74.9617 100.652 74.9617 100.353Z" fill="#343C82"/>
<path d="M66.272 100.353C66.272 100.028 67.2375 99.7837 68.4444 99.7837C69.6513 99.7837 70.6168 100.028 70.6168 100.353C70.6168 100.679 69.6513 100.923 68.4444 100.923C67.2375 100.923 66.272 100.652 66.272 100.353Z" fill="#343C82"/>
<path d="M57.5557 100.353C57.5557 100.028 58.548 99.7837 59.7281 99.7837C60.9082 99.7837 61.9274 100.028 61.9274 100.353C61.9274 100.679 60.935 100.923 59.7281 100.923C58.5212 100.923 57.5557 100.652 57.5557 100.353Z" fill="#343C82"/>
<path d="M48.8657 100.353C48.8657 100.028 49.8313 99.7837 51.0382 99.7837C52.2451 99.7837 53.2106 100.028 53.2106 100.353C53.2106 100.679 52.2451 100.923 51.0382 100.923C49.8313 100.923 48.8657 100.652 48.8657 100.353Z" fill="#343C82"/>
<path d="M40.1494 100.353C40.1494 100.028 41.1418 99.7837 42.3219 99.7837C43.502 99.7837 44.4943 100.028 44.4943 100.353C44.4943 100.679 43.5288 100.923 42.3219 100.923C41.1149 100.923 40.1494 100.652 40.1494 100.353Z" fill="#343C82"/>
<path d="M31.4062 100.353C31.4062 100.028 32.3718 99.7837 33.5787 99.7837C34.7856 99.7837 35.7511 100.028 35.7511 100.353C35.7511 100.679 34.7856 100.923 33.5787 100.923C32.3718 100.923 31.4062 100.652 31.4062 100.353Z" fill="#343C82"/>
<path d="M22.7432 100.353C22.7432 100.028 23.7087 99.7837 24.9155 99.7837C26.1224 99.7837 27.088 100.028 27.088 100.353C27.088 100.679 26.1224 100.923 24.9155 100.923C23.7087 100.923 22.7432 100.652 22.7432 100.353Z" fill="#343C82"/>
<path d="M14.0537 100.353C14.0537 100.028 15.0192 99.7837 16.2261 99.7837C17.433 99.7837 18.3986 100.028 18.3986 100.353C18.3986 100.679 17.433 100.923 16.2261 100.923C15.0192 100.923 14.0537 100.652 14.0537 100.353Z" fill="#343C82"/>
<path d="M5.33691 100.353C5.33691 100.028 6.30243 99.7837 7.50934 99.7837C8.71624 99.7837 9.68176 100.028 9.68176 100.353C9.68176 100.679 8.71624 100.923 7.50934 100.923C6.30243 100.923 5.33691 100.652 5.33691 100.353Z" fill="#343C82"/>
<path d="M0.590039 96.3413C0.911869 96.3413 1.18006 97.3171 1.18006 98.5369C1.1973 99.1535 1.10649 99.7683 0.911856 100.353L0.590039 100.028C0.858231 100.028 0.99231 100.136 0.99231 100.353C0.99231 100.353 0.858231 100.57 0.590039 100.678H0.429131L0.268222 100.299C0.0977309 99.7092 0.0162831 99.0968 0.0267779 98.4826C0.0267779 97.3171 0.295028 96.3413 0.590039 96.3413Z" fill="#343C82"/>
<path d="M0.616974 91.9238C0.928045 91.9238 1.18024 90.9408 1.18024 89.7283C1.18024 88.5157 0.928045 87.5327 0.616974 87.5327C0.305902 87.5327 0.0537109 88.5157 0.0537109 89.7283C0.0537109 90.9408 0.305902 91.9238 0.616974 91.9238Z" fill="#343C82"/>
<path d="M0.616974 83.1416C0.928045 83.1416 1.18024 82.1587 1.18024 80.9463C1.18024 79.7339 0.928045 78.751 0.616974 78.751C0.305902 78.751 0.0537109 79.7339 0.0537109 80.9463C0.0537109 82.1587 0.305902 83.1416 0.616974 83.1416Z" fill="#343C82"/>
<path d="M0.616974 74.333C0.928045 74.333 1.18024 73.3501 1.18024 72.1377C1.18024 70.9253 0.928045 69.9424 0.616974 69.9424C0.305902 69.9424 0.0537109 70.9253 0.0537109 72.1377C0.0537109 73.3501 0.305902 74.333 0.616974 74.333Z" fill="#343C82"/>
<path d="M0.616974 65.5518C0.928045 65.5518 1.18024 64.569 1.18024 63.3567C1.18024 62.1444 0.928045 61.1616 0.616974 61.1616C0.305902 61.1616 0.0537109 62.1444 0.0537109 63.3567C0.0537109 64.569 0.305902 65.5518 0.616974 65.5518Z" fill="#343C82"/>
<path d="M0.616974 56.7437C0.928045 56.7437 1.18024 55.7609 1.18024 54.5486C1.18024 53.3363 0.928045 52.3535 0.616974 52.3535C0.305902 52.3535 0.0537109 53.3363 0.0537109 54.5486C0.0537109 55.7609 0.305902 56.7437 0.616974 56.7437Z" fill="#343C82"/>
<path d="M0.616974 47.9614C0.928045 47.9614 1.18024 46.9787 1.18024 45.7664C1.18024 44.5541 0.928045 43.5713 0.616974 43.5713C0.305902 43.5713 0.0537109 44.5541 0.0537109 45.7664C0.0537109 46.9787 0.305902 47.9614 0.616974 47.9614Z" fill="#343C82"/>
<path d="M0.589675 34.6543C0.911532 34.6543 1.17975 35.6571 1.17975 36.8496C1.17975 38.0421 0.911532 39.0449 0.589675 39.0449C0.267818 39.0449 0.0263672 38.0692 0.0263672 36.8496C0.0263672 35.63 0.29464 34.6543 0.589675 34.6543Z" fill="#343C82"/>
<path d="M0.616974 30.3721C0.928045 30.3721 1.18024 29.3892 1.18024 28.1768C1.18024 26.9643 0.928045 25.9814 0.616974 25.9814C0.305902 25.9814 0.0537109 26.9643 0.0537109 28.1768C0.0537109 29.3892 0.305902 30.3721 0.616974 30.3721Z" fill="#343C82"/>
<path d="M0.616974 21.5635C0.928045 21.5635 1.18024 20.5806 1.18024 19.3682C1.18024 18.1557 0.928045 17.1729 0.616974 17.1729C0.305902 17.1729 0.0537109 18.1557 0.0537109 19.3682C0.0537109 20.5806 0.305902 21.5635 0.616974 21.5635Z" fill="#343C82"/>
<path d="M0.616974 12.7812C0.928045 12.7812 1.18024 11.7984 1.18024 10.5859C1.18024 9.3735 0.928045 8.39062 0.616974 8.39062C0.305902 8.39062 0.0537109 9.3735 0.0537109 10.5859C0.0537109 11.7984 0.305902 12.7812 0.616974 12.7812Z" fill="#343C82"/>
<path d="M2.49426 1.50738C2.49426 1.8055 1.66286 2.0223 0.590049 2.0765L1.15325 1.50738V1.77838C1.15325 2.99797 0.885045 3.97363 0.563202 3.97363C0.241359 3.97363 0 2.99797 0 1.77838V0.911133H0.536356C1.66281 0.965337 2.49426 1.20926 2.49426 1.50738Z" fill="#343C82"/>
<path d="M11.2104 1.5071C11.2104 1.80545 10.2181 2.07666 9.03808 2.07666C7.85803 2.07666 6.83887 1.80545 6.83887 1.5071C6.83887 1.20875 7.83121 0.9375 9.03808 0.9375C10.245 0.9375 11.2104 1.18163 11.2104 1.5071Z" fill="#343C82"/>
<path d="M19.9 1.5071C19.9 1.80545 18.9345 2.07666 17.7276 2.07666C16.5207 2.07666 15.5552 1.80545 15.5552 1.5071C15.5552 1.20875 16.5207 0.9375 17.7276 0.9375C18.9345 0.9375 19.9 1.18163 19.9 1.5071Z" fill="#343C82"/>
<path d="M28.7242 1.5071C28.7242 1.80545 27.7319 2.07666 26.5518 2.07666C25.3717 2.07666 24.3525 1.80545 24.3525 1.5071C24.3525 1.20875 25.3449 0.9375 26.5518 0.9375C27.7587 0.9375 28.7242 1.18163 28.7242 1.5071Z" fill="#343C82"/>
<path d="M37.3059 1.5071C37.3059 1.80545 36.3404 2.07666 35.1335 2.07666C33.9265 2.07666 32.9609 1.80545 32.9609 1.5071C32.9609 1.20875 33.9265 0.9375 35.1335 0.9375C36.3404 0.9375 37.3059 1.18163 37.3059 1.5071Z" fill="#343C82"/>
<path d="M46.0229 1.5071C46.0229 1.80545 45.0306 2.07666 43.8506 2.07666C42.6705 2.07666 41.6514 1.80545 41.6514 1.5071C41.6514 1.20875 42.6437 0.9375 43.8506 0.9375C45.0575 0.9375 46.0229 1.18163 46.0229 1.5071Z" fill="#343C82"/>
<path d="M54.7125 1.5071C54.7125 1.80545 53.747 2.07666 52.5401 2.07666C51.3332 2.07666 50.3677 1.80545 50.3677 1.5071C50.3677 1.20875 51.3332 0.9375 52.5401 0.9375C53.747 0.9375 54.7125 1.18163 54.7125 1.5071Z" fill="#343C82"/>
<path d="M63.4289 1.5071C63.4289 1.80545 62.4365 2.07666 61.2564 2.07666C60.0763 2.07666 59.084 1.80545 59.084 1.5071C59.084 1.20875 60.0495 0.9375 61.2564 0.9375C62.4634 0.9375 63.4289 1.18163 63.4289 1.5071Z" fill="#343C82"/>
<path d="M72.1188 1.5071C72.1188 1.80545 71.1533 2.07666 69.9464 2.07666C68.7394 2.07666 67.7739 1.80545 67.7739 1.5071C67.7739 1.20875 68.7394 0.9375 69.9464 0.9375C71.1533 0.9375 72.1188 1.18163 72.1188 1.5071Z" fill="#343C82"/>
<path d="M80.8354 1.5071C80.8354 1.80545 79.8699 2.07666 78.6629 2.07666C77.456 2.07666 76.4905 1.80545 76.4905 1.5071C76.4905 1.20875 77.456 0.9375 78.6629 0.9375C79.8699 0.9375 80.8354 1.18163 80.8354 1.5071Z" fill="#343C82"/>
<path d="M89.5251 1.5071C89.5251 1.80545 88.5595 2.07666 87.3526 2.07666C86.1457 2.07666 85.1802 1.80545 85.1802 1.5071C85.1802 1.20875 86.1457 0.9375 87.3526 0.9375C88.5595 0.9375 89.5251 1.18163 89.5251 1.5071Z" fill="#343C82"/>
<path d="M98.2415 1.5071C98.2415 1.80545 97.2758 2.07666 96.0689 2.07666C94.862 2.07666 93.8965 1.80545 93.8965 1.5071C93.8965 1.20875 94.862 0.9375 96.0689 0.9375C97.2758 0.9375 98.2415 1.18163 98.2415 1.5071Z" fill="#343C82"/>
<path d="M106.931 1.5071C106.931 1.80545 105.966 2.07666 104.759 2.07666C103.552 2.07666 102.586 1.80545 102.586 1.5071C102.586 1.20875 103.552 0.9375 104.759 0.9375C105.966 0.9375 106.931 1.18163 106.931 1.5071Z" fill="#343C82"/>
<path d="M115.648 1.5071C115.648 1.80545 114.682 2.07666 113.475 2.07666C112.268 2.07666 111.303 1.80545 111.303 1.5071C111.303 1.20875 112.268 0.9375 113.475 0.9375C114.682 0.9375 115.648 1.18163 115.648 1.5071Z" fill="#343C82"/>
<path d="M124.337 1.5071C124.337 1.80545 123.372 2.07666 122.165 2.07666C120.958 2.07666 119.992 1.80545 119.992 1.5071C119.992 1.20875 120.985 0.9375 122.165 0.9375C123.345 0.9375 124.337 1.18163 124.337 1.5071Z" fill="#343C82"/>
<path d="M133.054 1.5071C133.054 1.80545 132.088 2.07666 130.881 2.07666C129.674 2.07666 128.709 1.80545 128.709 1.5071C128.709 1.20875 129.674 0.9375 130.881 0.9375C132.088 0.9375 133.054 1.18163 133.054 1.5071Z" fill="#343C82"/>
<path d="M141.744 1.5071C141.744 1.80545 140.778 2.07666 139.571 2.07666C138.364 2.07666 137.399 1.80545 137.399 1.5071C137.399 1.20875 138.391 0.9375 139.571 0.9375C140.751 0.9375 141.744 1.18163 141.744 1.5071Z" fill="#343C82"/>
<path d="M150.46 1.5071C150.46 1.80545 149.495 2.07666 148.288 2.07666C147.081 2.07666 146.115 1.80545 146.115 1.5071C146.115 1.20875 147.081 0.9375 148.288 0.9375C149.495 0.9375 150.46 1.18163 150.46 1.5071Z" fill="#343C82"/>
<path d="M159.176 1.5071C159.176 1.80545 158.184 2.07666 156.977 2.07666C155.77 2.07666 154.805 1.80545 154.805 1.5071C154.805 1.20875 155.797 0.9375 156.977 0.9375C158.157 0.9375 159.176 1.18163 159.176 1.5071Z" fill="#343C82"/>
<path d="M167.866 1.5071C167.866 1.80545 166.901 2.07666 165.694 2.07666C164.487 2.07666 163.521 1.80545 163.521 1.5071C163.521 1.20875 164.487 0.9375 165.694 0.9375C166.901 0.9375 167.866 1.18163 167.866 1.5071Z" fill="#343C82"/>
<path d="M176.583 1.5071C176.583 1.80545 175.59 2.07666 174.383 2.07666C173.176 2.07666 172.211 1.80545 172.211 1.5071C172.211 1.20875 173.203 0.9375 174.383 0.9375C175.564 0.9375 176.583 1.18163 176.583 1.5071Z" fill="#343C82"/>
<path d="M185.272 1.5071C185.272 1.80545 184.307 2.07666 183.1 2.07666C181.893 2.07666 180.927 1.80545 180.927 1.5071C180.927 1.20875 181.893 0.9375 183.1 0.9375C184.307 0.9375 185.272 1.18163 185.272 1.5071Z" fill="#343C82"/>
<path d="M193.989 1.5071C193.989 1.80545 192.996 2.07666 191.816 2.07666C190.636 2.07666 189.617 1.80545 189.617 1.5071C189.617 1.20875 190.61 0.9375 191.816 0.9375C193.023 0.9375 193.989 1.18163 193.989 1.5071Z" fill="#343C82"/>
<path d="M202.678 1.5071C202.678 1.80545 201.713 2.07666 200.506 2.07666C199.299 2.07666 198.334 1.80545 198.334 1.5071C198.334 1.20875 199.299 0.9375 200.506 0.9375C201.713 0.9375 202.678 1.18163 202.678 1.5071Z" fill="#343C82"/>
<path d="M211.395 1.5071C211.395 1.80545 210.403 2.07666 209.223 2.07666C208.043 2.07666 207.023 1.80545 207.023 1.5071C207.023 1.20875 208.016 0.9375 209.223 0.9375C210.43 0.9375 211.395 1.18163 211.395 1.5071Z" fill="#343C82"/>
<path d="M220.085 1.5071C220.085 1.80545 219.119 2.07666 217.912 2.07666C216.705 2.07666 215.74 1.80545 215.74 1.5071C215.74 1.20875 216.705 0.9375 217.912 0.9375C219.119 0.9375 220.085 1.18163 220.085 1.5071Z" fill="#343C82"/>
<path d="M228.801 1.5071C228.801 1.80545 227.809 2.07666 226.629 2.07666C225.449 2.07666 224.429 1.80545 224.429 1.5071C224.429 1.20875 225.422 0.9375 226.629 0.9375C227.836 0.9375 228.801 1.18163 228.801 1.5071Z" fill="#343C82"/>
<path d="M237.491 1.5071C237.491 1.80545 236.525 2.07666 235.318 2.07666C234.112 2.07666 233.146 1.80545 233.146 1.5071C233.146 1.20875 234.112 0.9375 235.318 0.9375C236.525 0.9375 237.491 1.18163 237.491 1.5071Z" fill="#343C82"/>
<path d="M244.705 3.02441C244.437 3.02441 244.223 2.40098 244.142 1.50649L244.679 2.0486H244.035C242.828 2.0486 241.863 1.77752 241.863 1.47936C241.863 1.18119 242.828 0.910156 244.035 0.910156H244.679H245.269V1.39804C245.161 2.40096 244.947 3.02441 244.705 3.02441Z" fill="#343C82"/>
<path d="M244.706 11.8335C244.384 11.8335 244.115 10.8305 244.115 9.6107C244.115 8.39089 244.384 7.41504 244.706 7.41504C245.027 7.41504 245.269 8.41799 245.269 9.6107C245.269 10.8034 245.001 11.8335 244.706 11.8335Z" fill="#343C82"/>
<path d="M244.706 20.6152C244.384 20.6152 244.115 19.6394 244.115 18.4197C244.115 17.1999 244.384 16.2241 244.706 16.2241C245.027 16.2241 245.269 17.1999 245.269 18.4197C245.269 19.6394 245.001 20.6152 244.706 20.6152Z" fill="#343C82"/>
<path d="M244.706 29.4238C244.384 29.4238 244.115 28.4209 244.115 27.2284C244.115 26.0358 244.384 25.0059 244.706 25.0059C245.027 25.0059 245.269 26.0087 245.269 27.2284C245.269 28.448 245.001 29.4238 244.706 29.4238Z" fill="#343C82"/>
<path d="M244.706 38.2051C244.384 38.2051 244.115 37.2294 244.115 36.0098C244.115 34.7901 244.384 33.8145 244.706 33.8145C245.027 33.8145 245.269 34.7901 245.269 36.0098C245.269 37.2294 245.001 38.2051 244.706 38.2051Z" fill="#343C82"/>
<path d="M244.706 47.0132C244.384 47.0132 244.115 46.0105 244.115 44.818C244.115 43.6256 244.384 42.5957 244.706 42.5957C245.027 42.5957 245.269 43.5985 245.269 44.818C245.269 46.0376 245.001 47.0132 244.706 47.0132Z" fill="#343C82"/>
<path d="M244.706 55.7949C244.384 55.7949 244.115 54.8192 244.115 53.5996C244.115 52.38 244.384 51.4043 244.706 51.4043C245.027 51.4043 245.269 52.38 245.269 53.5996C245.269 54.8192 245.001 55.7949 244.706 55.7949Z" fill="#343C82"/>
<path d="M244.706 64.604C244.384 64.604 244.115 63.6013 244.115 62.4088C244.115 61.2163 244.384 60.1865 244.706 60.1865C245.027 60.1865 245.269 61.1892 245.269 62.4088C245.269 63.6284 245.001 64.604 244.706 64.604Z" fill="#343C82"/>
<path d="M244.706 73.3857C244.384 73.3857 244.115 72.4101 244.115 71.1904C244.115 69.9708 244.384 68.9951 244.706 68.9951C245.027 68.9951 245.269 69.9708 245.269 71.1904C245.269 72.4101 245.001 73.3857 244.706 73.3857Z" fill="#343C82"/>
<path d="M244.706 82.1943C244.384 82.1943 244.115 81.1915 244.115 79.999C244.115 78.8065 244.384 77.8037 244.706 77.8037C245.027 77.8037 245.269 78.7794 245.269 79.999C245.269 81.2186 245.001 82.1943 244.706 82.1943Z" fill="#343C82"/>
<path d="M244.706 90.9741C244.384 90.9741 244.115 89.9985 244.115 88.7791C244.115 87.5596 244.384 86.584 244.706 86.584C245.027 86.584 245.269 87.5596 245.269 88.7791C245.269 89.9985 245.001 90.9741 244.706 90.9741Z" fill="#343C82"/>
<path d="M244.706 99.7021C244.384 99.7021 244.115 98.6994 244.115 97.5068C244.115 96.3143 244.384 95.3115 244.706 95.3115C245.027 95.3115 245.269 96.2872 245.269 97.5068C245.269 98.7265 245.001 99.7021 244.706 99.7021Z" fill="#343C82"/>
<path d="M81.2913 82.9526C81.2913 82.6545 82.2567 82.3834 83.4636 82.3834L82.9004 82.9526V82.1666C82.9245 81.9282 82.9693 81.6924 83.0345 81.4619C83.0345 81.0554 83.2758 80.8115 83.4368 80.8115C83.5977 80.8115 83.7317 81.0554 83.839 81.4619C83.8581 81.6964 83.8581 81.9321 83.839 82.1666V82.5731V82.9526C83.5977 83.2236 84.4022 82.3835 83.2758 83.5488C82.364 83.4404 81.2913 83.2778 81.2913 82.9526Z" fill="#343C82"/>
<path d="M73.165 82.953C73.165 82.6546 74.0769 82.3833 75.1765 82.3833C76.2761 82.3833 77.2148 82.6546 77.2148 82.953C77.2148 83.2514 76.303 83.5498 75.1765 83.5498C74.0501 83.5498 73.165 83.2785 73.165 82.953Z" fill="#343C82"/>
<path d="M65.0386 82.953C65.0386 82.6546 65.9504 82.3833 67.0501 82.3833C68.1497 82.3833 69.0883 82.6546 69.0883 82.953C69.0883 83.2514 68.1765 83.5498 67.0501 83.5498C65.9236 83.5498 65.0386 83.2785 65.0386 82.953Z" fill="#343C82"/>
<path d="M56.9121 82.953C56.9121 82.6546 57.824 82.3833 58.9236 82.3833C60.0232 82.3833 60.9619 82.6546 60.9619 82.953C60.9619 83.2514 60.05 83.5498 58.9236 83.5498C57.7972 83.5498 56.9121 83.2785 56.9121 82.953Z" fill="#343C82"/>
<path d="M48.7852 82.953C48.7852 82.6546 49.697 82.3833 50.7967 82.3833C51.8963 82.3833 52.835 82.6546 52.835 82.953C52.835 83.2514 51.9231 83.5498 50.7967 83.5498C49.6702 83.5498 48.7852 83.2785 48.7852 82.953Z" fill="#343C82"/>
<path d="M40.6592 82.953C40.6592 82.6546 41.5442 82.3833 42.6707 82.3833C43.7972 82.3833 44.709 82.6546 44.709 82.953C44.709 83.2514 43.7972 83.5498 42.6707 83.5498C41.5442 83.5498 40.6592 83.2785 40.6592 82.953Z" fill="#343C82"/>
<path d="M32.5322 82.953C32.5322 82.6546 33.4173 82.3833 34.5437 82.3833C35.6702 82.3833 36.582 82.6546 36.582 82.953C36.582 83.2514 35.6702 83.5498 34.5437 83.5498C33.4173 83.5498 32.5322 83.2785 32.5322 82.953Z" fill="#343C82"/>
<path d="M24.4062 82.953C24.4062 82.6546 25.2913 82.3833 26.4177 82.3833C27.5442 82.3833 28.456 82.6546 28.456 82.953C28.456 83.2514 27.5442 83.5498 26.4177 83.5498C25.2913 83.5498 24.4062 83.2785 24.4062 82.953Z" fill="#343C82"/>
<path d="M18.157 80.7295C18.4788 80.7295 18.7202 81.7323 18.7202 82.9248L18.157 82.3556H18.9884H19.6857C20.088 82.3556 20.3294 82.6266 20.3294 82.7622C20.3294 82.8977 20.088 83.0874 19.6857 83.1687H18.9884H18.157C17.8888 82.8976 18.7202 83.7378 17.5938 82.5724C17.5938 81.7594 17.8351 80.7295 18.157 80.7295Z" fill="#343C82"/>
<path d="M18.157 71.9209C18.4788 71.9209 18.7202 72.8966 18.7202 74.1163C18.7202 75.336 18.4788 76.3389 18.157 76.3389C17.8351 76.3389 17.5938 75.336 17.5938 74.1163C17.5938 72.8966 17.8351 71.9209 18.157 71.9209Z" fill="#343C82"/>
<path d="M18.157 63.0576C18.4788 63.0576 18.7202 64.0604 18.7202 65.2801C18.7202 66.4998 18.4788 67.4756 18.157 67.4756C17.8351 67.4756 17.5938 66.4998 17.5938 65.2801C17.5938 64.0604 17.8351 63.0576 18.157 63.0576Z" fill="#343C82"/>
<path d="M18.157 54.1963C18.4788 54.1963 18.7202 55.199 18.7202 56.4184C18.7202 57.6379 18.4788 58.6406 18.157 58.6406C17.8351 58.6406 17.5938 57.6379 17.5938 56.4184C17.5938 55.199 17.8351 54.1963 18.157 54.1963Z" fill="#343C82"/>
<path d="M18.157 45.4951C18.4788 45.4951 18.7202 46.4709 18.7202 47.6905C18.7202 48.9102 18.4788 49.9131 18.157 49.9131C17.8351 49.9131 17.5938 48.9373 17.5938 47.6905C17.5938 46.4438 17.8351 45.4951 18.157 45.4951Z" fill="#343C82"/>
<path d="M18.157 36.4971C18.4788 36.4971 18.7202 37.4998 18.7202 38.7194C18.7202 39.9389 18.4788 40.9146 18.157 40.9146C17.8351 40.9146 17.5938 39.9389 17.5938 38.7194C17.5938 37.4998 17.8351 36.4971 18.157 36.4971Z" fill="#343C82"/>
<path d="M18.157 27.6616C18.4788 27.6616 18.7202 28.6373 18.7202 29.8568C18.7202 31.0763 18.4788 32.0791 18.157 32.0791C17.8351 32.0791 17.5938 31.0763 17.5938 29.8568C17.5938 28.6373 17.8351 27.6616 18.157 27.6616Z" fill="#343C82"/>
<path d="M20.3296 21.1034C20.3296 21.4286 19.3641 21.6726 18.1572 21.6726C19.2836 20.5342 18.479 21.3744 18.7204 21.1034V21.4828V21.9165C18.7374 22.1421 18.7374 22.3686 18.7204 22.5941C18.7204 23.0007 18.479 23.2446 18.3181 23.2446C18.1572 23.2446 18.0231 23.0007 17.9158 22.5941C17.8531 22.3723 17.8083 22.1457 17.7817 21.9165V21.1034L18.3449 20.5341C19.3641 20.4528 20.3296 20.6968 20.3296 21.1034Z" fill="#343C82"/>
<path d="M28.456 21.1023C28.456 21.4278 27.5442 21.6719 26.4177 21.6719C25.2913 21.6719 24.4062 21.4278 24.4062 21.1023C24.4062 20.7768 25.2913 20.5327 26.4177 20.5327C27.5442 20.5327 28.456 20.6955 28.456 21.1023Z" fill="#343C82"/>
<path d="M36.582 21.1023C36.582 21.4278 35.6702 21.6719 34.5437 21.6719C33.4173 21.6719 32.5322 21.4278 32.5322 21.1023C32.5322 20.7768 33.4173 20.5327 34.5437 20.5327C35.6702 20.5327 36.582 20.6955 36.582 21.1023Z" fill="#343C82"/>
<path d="M44.8159 21.1023C44.8159 21.4278 43.904 21.6719 42.7776 21.6719C41.6512 21.6719 40.7661 21.4278 40.7661 21.1023C40.7661 20.7768 41.6512 20.5327 42.7776 20.5327C43.904 20.5327 44.8159 20.6955 44.8159 21.1023Z" fill="#343C82"/>
<path d="M52.8619 21.1023C52.8619 21.4278 51.95 21.6719 50.8235 21.6719C49.6971 21.6719 48.812 21.4278 48.812 21.1023C48.812 20.7768 49.7239 20.5327 50.8235 20.5327C51.9231 20.5327 52.8619 20.6955 52.8619 21.1023Z" fill="#343C82"/>
<path d="M60.9082 21.1023C60.9082 21.4278 59.9963 21.6719 58.8699 21.6719C57.7434 21.6719 56.8584 21.4278 56.8584 21.1023C56.8584 20.7768 57.7703 20.5327 58.8699 20.5327C59.9695 20.5327 60.9082 20.6955 60.9082 21.1023Z" fill="#343C82"/>
<path d="M69.0883 21.1023C69.0883 21.4278 68.1765 21.6719 67.0501 21.6719C65.9236 21.6719 65.0386 21.4278 65.0386 21.1023C65.0386 20.7768 65.9504 20.5327 67.0501 20.5327C68.1497 20.5327 69.0883 20.6955 69.0883 21.1023Z" fill="#343C82"/>
<path d="M77.2148 21.1023C77.2148 21.4278 76.303 21.6719 75.1765 21.6719C74.0501 21.6719 73.165 21.4278 73.165 21.1023C73.165 20.7768 74.0769 20.5327 75.1765 20.5327C76.2761 20.5327 77.2148 20.6955 77.2148 21.1023Z" fill="#343C82"/>
<path d="M83.4636 23.2173C83.1418 23.2173 82.9004 22.2415 82.9004 21.0218C84.0268 22.1602 83.1954 21.347 83.4636 21.591H82.6054H81.9081C81.5326 21.591 81.2913 21.347 81.2913 21.1844C81.2913 21.0218 81.5326 20.8863 81.9081 20.7778H82.6054H83.0076H83.4636L84.0268 21.347C84.0268 22.2415 83.7854 23.2173 83.4636 23.2173Z" fill="#343C82"/>
<path d="M83.4636 32.0791C83.1417 32.0791 82.9004 31.0763 82.9004 29.8568C82.9004 28.6373 83.1417 27.6616 83.4636 27.6616C83.7854 27.6616 84.0267 28.6373 84.0267 29.8568C84.0267 31.0763 83.7854 32.0791 83.4636 32.0791Z" fill="#343C82"/>
<path d="M83.4636 40.9146C83.1417 40.9146 82.9004 39.9389 82.9004 38.7194C82.9004 37.4998 83.1417 36.4971 83.4636 36.4971C83.7854 36.4971 84.0267 37.4998 84.0267 38.7194C84.0267 39.9389 83.7854 40.9146 83.4636 40.9146Z" fill="#343C82"/>
<path d="M83.4636 49.7778C83.1417 49.7778 82.9004 48.8022 82.9004 47.5555C82.9004 46.3089 83.1417 45.3604 83.4636 45.3604C83.7854 45.3604 84.0267 46.336 84.0267 47.5555C84.0267 48.7751 83.7854 49.7778 83.4636 49.7778Z" fill="#343C82"/>
<path d="M83.4636 58.6406C83.1417 58.6406 82.9004 57.6379 82.9004 56.4184C82.9004 55.199 83.1417 54.1963 83.4636 54.1963C83.7854 54.1963 84.0267 55.199 84.0267 56.4184C84.0267 57.6379 83.7854 58.6406 83.4636 58.6406Z" fill="#343C82"/>
<path d="M83.4636 67.4756C83.1417 67.4756 82.9004 66.4998 82.9004 65.2801C82.9004 64.0604 83.1417 63.0576 83.4636 63.0576C83.7854 63.0576 84.0267 64.0604 84.0267 65.2801C84.0267 66.4998 83.7854 67.4756 83.4636 67.4756Z" fill="#343C82"/>
<path d="M83.4636 76.3389C83.1417 76.3389 82.9004 75.336 82.9004 74.1163C82.9004 72.8966 83.1417 71.9209 83.4636 71.9209C83.7854 71.9209 84.0267 72.8966 84.0267 74.1163C84.0267 75.336 83.7854 76.3389 83.4636 76.3389Z" fill="#343C82"/>
<path d="M19.7122 81.3809H16.6011V84.5244H19.7122V81.3809Z" fill="#343C82"/>
<path d="M19.7122 19.4492H16.6011V22.5928H19.7122V19.4492Z" fill="#343C82"/>
<path d="M85.0193 19.4492H81.9082V22.5928H85.0193V19.4492Z" fill="#343C82"/>
<path d="M85.0193 79.8081H81.9082V82.9521H85.0193V79.8081Z" fill="#343C82"/>
<path d="M50.824 81.3809H47.7129V84.5244H50.824V81.3809Z" fill="#343C82"/>
<path d="M52.3792 19.4492H49.2681V22.5928H52.3792V19.4492Z" fill="#343C82"/>
<path d="M19.7122 52.001H16.6011V55.145H19.7122V52.001Z" fill="#343C82"/>
<path d="M83.4637 50.4014H80.3525V53.5449H83.4637V50.4014Z" fill="#343C82"/>
</g>
</svg>
