<svg width="232" height="106" viewBox="0 0 232 106" fill="none" xmlns="http://www.w3.org/2000/svg">
<path d="M159.438 93L159.249 92.537L159.438 93ZM0.59432 99.294C0.432664 99.0703 0.482845 98.7573 0.706406 98.595L4.34959 95.9493C4.57315 95.7869 4.88544 95.8367 5.04711 96.0603C5.20877 96.284 5.15859 96.597 4.93502 96.7593L1.69664 99.1111L4.03834 102.351C4.2 102.575 4.14982 102.888 3.92626 103.05C3.70269 103.213 3.39041 103.163 3.22874 102.939L0.59432 99.294ZM231.184 1C231.669 1.11791 231.669 1.11833 231.669 1.11902C231.668 1.1196 231.668 1.12056 231.668 1.12172C231.667 1.12405 231.667 1.12743 231.665 1.13186C231.663 1.14072 231.66 1.15376 231.656 1.17094C231.647 1.20531 231.634 1.2562 231.617 1.32318C231.583 1.45715 231.532 1.65547 231.463 1.9146C231.324 2.43284 231.114 3.19432 230.828 4.17057C230.255 6.12302 229.377 8.93485 228.151 12.3783C225.7 19.2644 221.859 28.6807 216.3 38.8031C205.188 59.0385 187.18 82.1513 159.627 93.463L159.249 92.537C186.502 81.3487 204.366 58.4615 215.425 38.3219C220.952 28.2568 224.772 18.8918 227.21 12.0436C228.429 8.61984 229.302 5.8262 229.869 3.88997C230.153 2.92189 230.361 2.16823 230.497 1.65742C230.566 1.40202 230.616 1.20734 230.649 1.07693C230.666 1.01173 230.678 0.962594 230.686 0.929973C230.691 0.913662 230.694 0.90148 230.696 0.893482C230.697 0.889483 230.697 0.886529 230.698 0.884629C230.698 0.883679 230.698 0.883045 230.698 0.882569C230.698 0.8822 230.698 0.882094 231.184 1ZM159.627 93.463C132.115 104.758 92.4096 106.25 59.6454 104.938C43.251 104.281 28.5718 102.92 17.9912 101.724C12.7007 101.126 8.43428 100.569 5.48988 100.161C4.01767 99.9569 2.87591 99.7904 2.10183 99.6748C1.7148 99.617 1.41968 99.5719 1.22115 99.5413C1.12186 99.5259 1.04673 99.5142 0.996328 99.5063C0.971132 99.5024 0.952106 99.4994 0.939341 99.4973C0.932952 99.4963 0.928138 99.4956 0.924889 99.4951C0.923257 99.4948 0.922012 99.4946 0.921196 99.4945C0.920328 99.4943 0.919865 99.4943 0.999122 99C1.07838 98.5057 1.0787 98.5058 1.07943 98.5059C1.08019 98.506 1.08129 98.5062 1.08284 98.5065C1.08589 98.5069 1.09052 98.5077 1.09672 98.5086C1.1091 98.5106 1.12773 98.5135 1.15255 98.5174C1.20219 98.5252 1.27654 98.5368 1.37502 98.552C1.57199 98.5824 1.86549 98.6273 2.25085 98.6848C3.02161 98.7999 4.15986 98.9659 5.6284 99.1693C8.5655 99.576 12.8236 100.132 18.105 100.729C28.6682 101.924 43.3226 103.282 59.6871 103.937C92.4408 105.25 131.955 103.742 159.249 92.537L159.627 93.463Z" fill="#A8AEED"/>
</svg>
