<svg width="7" height="10" viewBox="0 0 7 10" fill="none" xmlns="http://www.w3.org/2000/svg">
<path d="M3.08 7.228L2.87 4.96L2.94 4.89C3.84533 4.87133 4.536 4.68933 5.012 4.344C5.488 3.98933 5.726 3.51333 5.726 2.916V2.888C5.726 2.36533 5.53933 1.93133 5.166 1.586C4.79267 1.24067 4.298 1.068 3.682 1.068C2.73 1.068 1.88067 1.50667 1.134 2.384L0.42 1.698C1.316 0.615333 2.41267 0.0739993 3.71 0.0739993C4.64333 0.0739993 5.39933 0.335333 5.978 0.857999C6.55667 1.38067 6.846 2.04333 6.846 2.846V2.874C6.846 3.70467 6.57533 4.358 6.034 4.834C5.49267 5.30067 4.79267 5.59467 3.934 5.716L3.794 7.228H3.08ZM2.786 10V8.53H4.074V10H2.786Z" fill="#343C82"/>
</svg>
