<svg width="247" height="166" viewBox="0 0 247 166" fill="none" xmlns="http://www.w3.org/2000/svg">
<g opacity="0.2">
<path d="M245.859 165.477C245.859 165.477 245.859 164.447 245.859 162.496C245.859 160.544 245.859 157.617 245.859 153.85C245.859 146.261 245.859 135.176 245.725 120.973C245.725 92.5421 245.564 51.7517 245.43 1.96304L245.993 2.53221L0.804568 2.66773L1.47507 1.88173C1.47507 60.0724 1.47507 115.417 1.47507 165.396L0.831414 164.745L177.361 165.07L227.89 165.26H241.3H244.786H245.993H244.867H241.434H228.024L177.656 165.423L0.643654 165.748H0V165.098C0 115.119 0 59.7743 0 1.5836V0.878906H0.724111L245.913 1.04154H246.476V1.5836C246.476 51.5078 246.261 92.4337 246.208 120.838C246.208 134.986 246.208 146.044 246.047 153.606C246.047 157.319 246.047 160.192 246.047 162.143C246.047 164.095 245.859 165.477 245.859 165.477Z" fill="#343C82"/>
<path d="M246.986 18.6585C246.986 19.0382 192.219 19.3638 124.66 19.3638C57.0999 19.3638 2.3335 19.0382 2.3335 18.6585C2.3335 18.2787 57.0999 17.9531 124.66 17.9531C192.219 17.9531 246.986 18.143 246.986 18.6585Z" fill="#343C82"/>
<path d="M100.119 42.1836H21.9927V146.261H100.119V42.1836Z" fill="#A8AEED"/>
<path d="M224.51 47.0625C224.51 47.4422 199.997 47.7676 169.744 47.7676C139.491 47.7676 114.978 47.4422 114.978 47.0625C114.978 46.6828 139.491 46.3574 169.744 46.3574C199.997 46.3574 224.51 46.6557 224.51 47.0625Z" fill="#A8AEED"/>
<path d="M224.51 60.0735C224.51 60.4533 199.997 60.7788 169.744 60.7788C139.491 60.7788 114.978 60.4533 114.978 60.0735C114.978 59.6937 139.491 59.3682 169.744 59.3682C199.997 59.3682 224.51 59.6937 224.51 60.0735Z" fill="#A8AEED"/>
<path d="M224.51 73.1082C224.51 73.4874 199.997 73.8125 169.744 73.8125C139.491 73.8125 114.978 73.4874 114.978 73.1082C114.978 72.7289 139.491 72.4038 169.744 72.4038C199.997 72.4038 224.51 72.7018 224.51 73.1082Z" fill="#A8AEED"/>
<path d="M224.51 86.1191C224.51 86.5259 199.997 86.8242 169.744 86.8242C139.491 86.8242 114.978 86.5259 114.978 86.1191C114.978 85.7124 139.491 85.4141 169.744 85.4141C199.997 85.4141 224.51 85.7395 224.51 86.1191Z" fill="#A8AEED"/>
<path d="M169.878 99.1553C160.956 99.8553 152.004 100.09 143.058 99.8602C134.112 100.092 125.16 99.8564 116.238 99.1553C125.159 98.4377 134.112 98.2024 143.058 98.4505C152.004 98.2038 160.957 98.439 169.878 99.1553Z" fill="#A8AEED"/>
<path d="M169.878 112.165C160.957 112.881 152.004 113.117 143.058 112.87C134.112 113.118 125.159 112.883 116.238 112.165C125.16 111.464 134.112 111.229 143.058 111.46C152.004 111.23 160.956 111.465 169.878 112.165Z" fill="#A8AEED"/>
<path d="M169.878 127.261C160.957 127.977 152.004 128.213 143.058 127.966C134.112 128.214 125.159 127.979 116.238 127.261C125.16 126.56 134.112 126.324 143.058 126.556C152.004 126.325 160.956 126.561 169.878 127.261Z" fill="#A8AEED"/>
<path d="M168.484 142.656C159.563 143.374 150.61 143.609 141.664 143.361C132.718 143.608 123.765 143.372 114.844 142.656C123.766 141.956 132.718 141.721 141.664 141.951C150.61 141.72 159.562 141.955 168.484 142.656Z" fill="#A8AEED"/>
</g>
</svg>
